<svg width="15" height="20" viewBox="0 0 15 20" fill="none" xmlns="http://www.w3.org/2000/svg">
<path
  d="M11.25 10H3.75V12.5H11.25V10ZM14.7266 4.10156L10.9023 0.273438C10.7266 0.0976562 10.4883 0 10.2383 0H10V5H15V4.76172C15 4.51562 14.9023 4.27734 14.7266 4.10156ZM8.75 5.3125V0H0.9375C0.417969 0 0 0.417969 0 0.9375V19.0625C0 19.582 0.417969 20 0.9375 20H14.0625C14.582 20 15 19.582 15 19.0625V6.25H9.6875C9.17188 6.25 8.75 5.82812 8.75 5.3125ZM2.5 2.8125C2.5 2.63984 2.63984 2.5 2.8125 2.5H5.9375C6.11016 2.5 6.25 2.63984 6.25 2.8125V3.4375C6.25 3.61016 6.11016 3.75 5.9375 3.75H2.8125C2.63984 3.75 2.5 3.61016 2.5 3.4375V2.8125ZM2.5 5.3125C2.5 5.13984 2.63984 5 2.8125 5H5.9375C6.11016 5 6.25 5.13984 6.25 5.3125V5.9375C6.25 6.11016 6.11016 6.25 5.9375 6.25H2.8125C2.63984 6.25 2.5 6.11016 2.5 5.9375V5.3125ZM12.5 17.1875C12.5 17.3602 12.3602 17.5 12.1875 17.5H9.0625C8.88984 17.5 8.75 17.3602 8.75 17.1875V16.5625C8.75 16.3898 8.88984 16.25 9.0625 16.25H12.1875C12.3602 16.25 12.5 16.3898 12.5 16.5625V17.1875ZM12.5 9.375V13.125C12.5 13.4703 12.2203 13.75 11.875 13.75H3.125C2.77969 13.75 2.5 13.4703 2.5 13.125V9.375C2.5 9.02969 2.77969 8.75 3.125 8.75H11.875C12.2203 8.75 12.5 9.02969 12.5 9.375Z" fill="currentColor"/>
</svg>
