<?xml version="1.0" encoding="utf-8"?>
<!-- Generator: Adobe Illustrator 26.3.1, SVG Export Plug-In . SVG Version: 6.00 Build 0)  -->
<svg version="1.1" id="Warstwa_1" xmlns="http://www.w3.org/2000/svg" xmlns:xlink="http://www.w3.org/1999/xlink" x="0px" y="0px"
	 viewBox="0 0 272.8 116.4" style="enable-background:new 0 0 272.8 116.4;" xml:space="preserve">
<style type="text/css">
	.st0{fill:#899EAA;}
	.st1{fill:#E9511D;}
	.st2{fill:#775A18;}
</style>
<g>
	<g>
		<path class="st0" d="M10.9,89.7l17.7,9v-4l-3.3-1.7v-7.3l3.3-1.5v-3.9l-17.7,8.4V89.7z M21.8,87.5v3.8l-3.9-2L21.8,87.5z"/>
		<polygon class="st0" points="10.9,61.8 17.6,69.2 10.9,76.6 10.9,77.8 28.6,77.8 28.6,74.3 17.7,74.3 22.4,69.2 17.7,64.1 
			28.6,64.1 28.6,60.6 10.9,60.6 		"/>
		<polygon class="st0" points="25,53.8 21.2,53.8 21.2,47 17.7,47 17.7,53.8 14.4,53.8 14.4,45.5 10.9,45.5 10.9,57.3 28.6,57.3 
			28.6,45.6 25,45.6 		"/>
		<polygon class="st0" points="25,34.9 25,36.8 14.4,36.8 14.4,34.9 10.9,34.9 10.9,42.2 14.4,42.2 14.4,40.3 25,40.3 25,42.2 
			28.6,42.2 28.6,34.9 		"/>
	</g>
	<path class="st1" d="M7.1,36.4c-0.1,0.8-0.2,1.7-0.5,2.6c-0.3,0.7-0.5,1.4-0.8,2.2C5.5,41.9,5.4,42,4.6,42c-0.7-0.1-1.5,0-2.2-0.2
		c-0.2-0.1-0.4-0.1-0.5-0.2c-0.5-0.7-1.1-1.4-1.5-2.2c-0.4-0.8-0.5-1.7-0.1-2.5c0-0.1,0.1-0.2,0.1-0.2c-0.1-0.8,0.4-1,1-1.3
		c0.4-0.2,0.8-0.5,1.1-0.8C3,34,3.6,34.1,4.2,34.4c0.3,0.2,0.6,0.3,1,0.4C5.6,35,6,35.2,6.2,35.6C6.4,35.9,6.7,36.1,7.1,36.4z"/>
	<g>
		<path class="st0" d="M264.9,93c-1-0.8-2.1-1.4-3.3-1.7c-3-0.8-6-1.1-9-1.2c-3.5-0.1-6.9-0.3-10.4-0.4c-2.4-0.1-4.9-0.5-7.3-0.7
			c-5.5-0.5-10.9,0-16.4-0.2c-0.6,0.4-1.2,0.4-1.9,0.1c-0.5,0-1,0.1-1.5,0.1c-0.6,0.4-1.3,0-1.9-0.1c-0.7,0-1.4,0-2.2,0.1
			c-0.4,0.5-0.8,0.5-1.3,0.3c-0.7,0-1.4,0-2-0.1c-0.6,0.3-1.2,0.3-1.8,0.1c-1,0-2-0.1-3-0.1c-1.4,0.2-2.9,0.6-4.3,0.2
			c-0.3,0.1-0.6,0.2-0.9,0.3c-1.7,0.4-3.4,0.1-5,0.6c-0.2,0.1-0.5-0.2-0.7-0.3c-0.4,0-0.8,0-1.1,0.1c-2.6,0.2-5.2,0.7-7.8,0.9
			c-3.5,0.3-6.9,0.4-10.4,0.7c-1.3,0.1-2.5-0.2-3.8-0.3c-2.5-0.4-5.1-0.6-7.5-0.5c-4,0.2-7.9-0.4-11.9-0.5
			c-7.4-0.1-14.7,0.6-22.1,0.4c-3.9-0.1-7.8-0.6-11.7-0.5c-3.9,0.1-7.8-0.1-11.7,0.3c-4.6,0.5-9.2,0.1-13.7,1
			c-0.9,0.2-1.8,0.1-2.6-0.1c-0.3,0-0.6,0-0.9,0c-2,0.5-4,0.4-6.1,0.5c-0.2,0-0.3,0-0.5,0c-3.4-0.1-6.9,0.5-10.3-0.3
			c-0.2,0.1-0.5,0.1-0.7,0.2c-1,0.1-2.1,0-3.1,0.4c-0.4,0.1-0.7,0-1-0.3c-0.8,0-1.5,0.1-2.3,0.1c-0.2,0-0.5,0-0.7,0
			c-0.9,0.1-1.8,0.1-2.6,0.2c-2.3,0.6-4.5,1-6.8,0.2c-0.8,0.1-1.5,0.1-2.3,0.2c-0.7,1.1-1.5,0.6-2.3,0c-0.5,0.1-1,0.2-1.5,0.3
			c-0.2,0.3-0.5,0.6-0.8,0.5c-1.2-0.3-2.3-0.2-3.5-0.3c-0.8,0-1.4-0.6-1.8-1.4c-0.9-0.3-1.7-0.1-2.6-0.5C37.1,91,36.4,91,36,91.9
			c-0.4,0.8-0.2,1.8,0.3,2.4c0.7,0.8,1,2,1.7,2.8c0.3,0.2,0.7,0.4,1,0.6c0.6,0.1,1.2,0.3,1.9,0.4c1-0.4,2.1-0.4,3.2-0.4
			c3.4,0.1,6.9,0.2,10.3-0.3c0.9-0.1,1.9-0.3,2.8-0.1c1.7,0.3,3.4-0.8,5,0.1c3.1-0.6,6.2-1,9.3-0.9c1.8,0.1,3.7,0.1,5.5,0.1
			c2.5,0.1,4.9,0.4,7.4,0.2c2.4-0.2,4.8-0.3,7.1-0.3c2.5,0,4.9-0.4,7.4-0.3c1,0,1.9-0.9,2.9-0.7c1.3,0.3,2.5,0.3,3.8,0.1
			c2-0.3,4,0.3,6,0c3.7-0.6,7.5-0.9,11.2-0.2c0.7,0.1,1.4,0,2.1,0c1.8,0.1,3.6-0.2,5.4-0.1c2.5,0.2,4.9,0.8,7.5-0.3
			c1.8-0.8,4-0.3,5.9-0.1c1.3,0.1,2.6,0.5,3.9,0.4c4.2-0.3,8.3-0.2,12.4,0.8c2,0.5,4.1,0.8,6.2,0.1c1.4-0.5,2.7-0.1,4.1,0.2
			c1.8,0.4,3.6,0.6,5.4,0.4c1.5-0.2,3-0.4,4.5-0.3c3,0.1,5.9-0.8,8.8-0.2c0.2,0.1,0.5,0,0.7-0.1c2.6-0.7,5.3-0.4,7.9-0.4
			c2.6,0,5.3,0,7.9-0.4c1.9-0.3,3.6-0.1,5.4,0.3c0.4,0,0.7,0,1.1,0c1.6,0,3.2,0,4.7,0c0.7,0,1.5-0.1,2.2-0.1
			c0.6-0.7,1.4-0.7,2.1-0.7c0.6,0,1.2,0,1.8,0.1c0.8-0.2,1.6-0.3,2.4-0.1c2.2,0,4.4,0,6.6-0.1c0.3-0.1,0.5,0,0.8,0.1
			c1,0.3,2,0.3,3.1,0.1c0.5-0.2,1-0.2,1.5,0.2c2.5,0.7,5.1-0.5,7.6,0.9c0.1,0.1,0.3,0,0.4,0c1.2-0.4,2.4-0.2,3.6-0.2
			c2.1,0,4.1,0.4,6.2,0.4c1.1,0,2.2,0.3,3.4,0.5c2,0.4,4.1,0.6,6.2,0.8c0.9,0.1,1.6-0.5,1.6-1.6C266.2,95,265.7,93.6,264.9,93z"/>
		<path class="st0" d="M46.6,81.2c3.7-0.8,7.3,0.8,11,0.4c1.4-0.2,2.9,0.1,4.3,0c1.6-0.1,3.3-0.2,4.9-0.1c2.4,0.3,4.7,0.7,7.1,0.5
			c0.7,0.1,1.4,0.2,2,0.2c0.2,0,0.4,0.1,0.6,0.1c0.5,0,0.9,0.1,1.4,0.1c1.9,0.2,3.9,0.4,5.8,0.6c0.3,0,0.6,0,0.9,0
			c0.9,0.1,1.8,0.2,2.8,0c3.1-0.3,6.1-0.5,9.2-0.9c2-0.2,4-0.5,6-0.6c2.1-0.1,4.3-0.2,6.4,0.1c2.6,0.4,5.1-0.3,7.7-0.2
			c5.8,0.2,11.6,0.1,17.4,0.3c2.4,0.1,4.8,0.3,7.1-0.4c1.2-0.4,2.4,0.3,3.6,0.2c2.9-0.1,5.8-0.3,8.7-0.5c3.1-0.2,6.3,0.1,9.4-0.1
			c3.3-0.2,6.6,0,9.8-0.5c6-0.9,12.1-0.4,18.1-0.9c1.1-0.1,2.3,0.1,3.4,0.5c0.4,0,0.8,0,1.2,0c0.2,0,0.4,0,0.6,0c0.3,0,0.6,0,1,0
			c1,0.1,1.9-0.9,2.9-0.2c0.3,0,0.5,0,0.8,0.1c0.3-0.4,0.8-0.7,1.2-0.5c1.6,0.7,3.3-0.3,4.9,0.5c0.4,0.2,0.9-0.1,1.3-0.1
			c0.8-0.1,1.6-0.3,2.4,0.2c0.5,0.1,1.1,0.1,1.6,0.2c1.2-0.2,2.5-0.5,3.7,0c0.3,0,0.6,0,0.9,0c0.8-0.5,1.6-1,2.6-0.7
			c0.2,0,0.5,0,0.7,0c0.4-0.1,0.8-0.1,1.1,0.1c2.2,0.5,4.4,1,6.6,0.6c1.6-0.2,3.2-0.3,4.7-0.2c2.6,0.2,5-0.8,7.7-0.2
			c2.3,0.5,4.7,0.4,7,0.1c0.9-0.1,1.9-0.1,2.8,0.1c2.4,0.5,4.9,0.5,7.3,0.4c0.4-2.2,1.9-2.1,3.3-2.3c0.5-0.1,1.1,0.2,1.7,0.3
			c1.9,0.4,1.9,0.4,2.9-1.9c-1.3-0.4-2.3-1.4-3.8-1.2c-6.1,0.6-12.2,0.6-18.3-0.1c-5.1-0.6-10.2-1-15.3-0.1
			c-2.3,0.4-4.6,0.5-6.9,0.4c-2.9-0.2-5.9,0-8.8-0.3c-1.6-0.2-3.3,0.1-4.9,0.1c-1.9,0-3.8-0.2-5.7-0.3c-3.8-0.2-7.7,0.3-11.5,0
			c-1.2-0.1-2.3-0.3-3.5-0.3c-5,0.2-10.1,0.4-15.1,0.5c-1.1,0-2.3,0.2-3.4,0c-1.3-0.3-2.7-0.2-4,0c-1.1,0.2-2.3,0.2-3.4,0.2
			c-1.3-0.1-2.5-0.1-3.8-0.1c-2.1,0.1-4.3,0.4-6.4,0.2c-3-0.3-6,0.4-9,0.2c-2.1-0.1-4.3,0-6.4,0.3c-3.8,0.4-7.7-0.1-11.5,0
			c-2.4,0-4.8-0.4-7.2-0.1c-3.6,0.3-7.3,0.4-10.9,0.4c-5.2,0-10.4,0.9-15.6,1.1c-2.7,0.1-5.4,0.6-8.1,0.4c-0.9-0.1-1.7,0.4-2.6,0.2
			c-3.3-0.6-6.6-1.2-9.9-1.4c-2.1-0.1-4.1-0.1-6.2-0.1c-5.8,0.1-11.6-1-17.4-0.6c-2.5,0.2-5-0.2-7.5,0.3c-0.8,0.2-1.8,0.2-2.5-0.7
			c-0.4-0.5-1-0.8-1.6-0.6c-0.8,0.2-1.2,1.2-0.6,1.9c2.3,2.6,4.9,4.6,8.1,4.7C43.1,81.4,44.8,81.6,46.6,81.2z"/>
		<path class="st0" d="M272.7,61.9c-0.6-1.2-1-2.4-2.4-2.7c-2.3-0.5-4.6-0.6-6.9-0.5c-2.4,0.1-4.8,0-7.2-0.4
			c-2.4-0.4-4.7,0.8-7.1-0.3c-0.1-0.1-0.3,0-0.4,0c-3.5-0.1-7-0.2-10.5-0.3c-0.6,0-1.3,0-1.9,0.1c-3.4,0.5-6.8,1.3-10.1,1.2
			c-3.3-0.1-6.6,0.7-9.9,0.2c-1.5-0.2-3,0.3-4.5,0.2c-2.6,0-5.3-0.3-7.9-0.1c-0.9,0.1-1.7,0.2-2.6,0c-3.4-0.6-6.9-0.6-10.3-0.5
			c-2.3,0-4.5,0.1-6.8-0.1c-3.8-0.4-7.5,0.3-11.3,0.4c-2.8,0.1-5.6,0.8-8.5-0.1c-0.5-0.1-0.9-0.1-1.3,0.2c-0.4,0.3-0.8,0.2-1.3,0.2
			c-4.4-0.2-8.8-0.4-13.2-0.5c-0.3,0-0.6,0-0.9,0.1c-5,0.9-10,0.8-15.1,0.7c-3.6-0.1-7.1-0.9-10.7-0.4c-1.8,0.2-3.5,0.6-5.3,0.4
			c-3-0.4-5.9-0.2-8.9-0.1c-3.9,0-7.8,0-11.7-0.1c-1.9,0-3.8,0.1-5.6,0.5c-1.2,0.3-2.4,0.4-3.6,0.3c-2.8-0.2-5.7-0.3-8.5,0.4
			c-0.4,0.1-0.9,0.1-1.3,0c-3.1-0.5-6.2,0-9.2,0c-4,0-8,0.6-12.1-0.2c-3.5-0.7-7-0.9-10.5-0.1c-0.9,0.2-1.9,0.4-2.8,0.2
			c-2.1-0.5-4.3-0.1-6.4-0.3c-0.4,0-1.1-0.4-1.2,0.6c0,0.8,0.5,1.2,1.1,1.3c0.2,0,0.4,0,0.6,0.1c4.2,1.2,8.5,0.2,12.7,1.3
			c0.2,0.1,0.5-0.1,0.8-0.1c2.6-0.1,5.3-0.4,7.9,0.5c1.9,0.7,3.9,0.5,5.8,0.6c3.1,0.1,6.1-1.1,9.2-0.3c0.5,0.1,1,0.1,1.5,0
			c3.7-0.6,7.4-0.4,11.1-0.3c2.4,0.1,4.8-0.5,7.2-0.2c3.3,0.3,6.7,0.4,10,0.1c1.3-0.1,2.5-0.4,3.8-0.2c3.3,0.5,6.5,0.3,9.8,0.4
			c3,0.1,6,0,9,0.4c5,0.6,10.1,0.1,15.1,0.5c1,0.1,2,0.2,2.9-0.7c0.3-0.2,0.7-0.3,1.1-0.2c2.5,0.4,5-0.1,7.5-0.3
			c1.1-0.1,2.1-0.4,3.1,0.4c0.3,0.2,0.7,0,1.1,0c1.6,0.2,3.1-0.7,4.7-0.2c1.1,0.3,2.1,0.3,3.2,0.1c1.3-0.3,2.5-0.2,3.8-0.1
			c3,0.1,5.9,0.4,8.9-0.4c1.7-0.5,3.4-0.4,5.1-0.2c5,0.6,9.9,0.2,14.9,0.5c3.4,0.2,6.8,0.4,10.2,0.5c2.9,0.1,5.9,0,8.8,0.2
			c0.6,0,1.1,0,1.7,0.1c1.8,0.3,3.5,0.2,5.3-0.1c3.8-0.6,7.5-1.9,11.4-1c0.3,0.1,0.7-0.1,1.1-0.3c1.8-0.6,3.6-1.1,5.6-0.6
			c0.7,0.2,1.5,0,2.3,0.1c2.3,0.3,4.7-0.7,6.9,0.6c0.2-0.3,0.5-0.3,0.7-0.1c0.4,0,0.8-0.1,1.2-0.1c0.3-0.4,0.5-0.8,0.8-1.2
			c0.8-0.8,1-0.7,1.8,0.7c0.8,0.1,1.5,0.3,2.3,0.4c1.2-0.5,2.4-0.4,3.7-0.3c1.2,0.1,2.4,0.2,3.5-0.3c1.3-0.6,2.3-0.2,3.2,1.1
			c0.2,0,0.4,0.1,0.6,0.1c0.2-0.7,0.5-0.8,0.9-0.1c1.2,0.3,2.5,0.8,3.7,0C272.5,62.9,273,62.6,272.7,61.9z"/>
		<path class="st0" d="M35.7,48.7c1.9,0.9,3.7,2.1,5.8,1.3c0.4-0.1,0.7,0,1.1,0c2.7,0.2,5.4,0.6,8.1,0.5c4-0.2,8,0.2,12,0.1
			c4.5-0.1,9.1,0.3,13.6-0.1c2.1-0.2,4.2-0.4,6.3-0.3c3.6,0.2,7.2,0.4,10.7,0.4c1.2,0,2.3-0.4,3.6-0.2c2.9,0.4,5.9,0.1,8.8,0.2
			c2.8,0,5.5-0.3,8.3-0.2c2.1,0.1,4.4,0.5,6.4-0.2c1.5-0.5,2.9-0.5,4.4-0.3c4.4,0.7,8.9,0.4,13.3,0.6c0.1,0,0.3,0,0.4,0
			c4.3-0.6,8.6-0.9,12.9-1c0.7-0.4,1.2-1,1.8-1.5c0.7-0.6,0.8,0.2,0.9,0.8c1-0.1,1.9-0.4,2.9-0.3c1.1-0.4,2.1-0.7,3.2-1.2
			c1.3-0.5,1.6-0.4,2.6,1.1c0.3,0,0.5,0,0.8,0.1c0.9-0.6,1.8-0.7,2.7,0.2c0.5,0,1,0,1.5,0.1c0.1-0.6-0.1-1.4,0.6-1.5
			c0.8-0.1,1.5,0.2,1.7,1.4c0.3,0,0.5,0,0.8,0c1-1,1.9-2.2,3.4-1.3c0.3,0.2,0.6,0.2,0.9,0c1.1-0.9,1.8,0,2.5,1
			c0.5,0.1,1,0.2,1.6,0.4c0-1.1,0.1-1.6,1.4-1.6c1.2,0,2.4,0,3.5,0.6c0.6,0.3,1.2-0.3,1.7-0.7c1-0.7,1.3-0.6,2.4,0.7
			c0.8,1.3,2,1,3.1,1.2c0.8-1.5,1-1.6,2.3-0.5c1.6-0.1,3.3-0.1,4.9-0.2c0-0.4,0-0.9,0.4-0.9c0.7,0,0.7,0.7,0.9,1.3
			c0.9,0,1.7,0,2.6,0c0.6-0.8,1.3-1.2,1.9,0.1c3.2-0.6,6.5-0.3,9.8-0.5c1.1,0,2.2-0.2,3.3,0.5c0.6,0.4,1.4,0.4,2-0.2
			c0.6-0.5,1-0.4,1.3,0.5c0.3,0.9,0.9,1.3,1.5,1c1.5-0.7,2.8-0.1,4.2,0.4c0.8,0.3,1.6,0.4,2.4,0.4c3.9,0,7.8,0.1,11.7,0.8
			c0.5,0.1,1.1-0.1,1.7-0.1c1,0.1,2-0.6,3-0.2c1,0.4,2,0.2,3-0.1c1.5-0.4,3.2-0.8,4.7-0.5c2.2,0.4,4.4,0.1,6.6,0.3
			c2,0.2,4,0,5.8,1.4c1.1,0.8,2.3,0.9,3.5,0.9c1,0,2-2,1.4-3c-0.4-0.7-0.9-1.8-1.7-1.8c-1.1-0.1-2.1-1.6-3.2-0.4
			c-0.7-0.7-1.4-1-2.3-0.9c-0.7-0.4-1.5-0.6-2.3-0.3c-0.5,0-1,0.1-1.5,0.1c-1.8-0.5-3.6,0.1-5.4-0.3c-1.7-0.4-3.4-0.3-5,0.2
			c-0.4,0.1-0.9,0.2-1.3,0.3c-0.7-0.4-1.3-0.3-1.9,0.1c-0.5,0-1,0-1.5-0.1c-0.3-0.3-0.5-0.2-0.8,0c-3.1,0.1-6.3-0.2-9.4,0
			c-0.1,0-0.3,0-0.4,0c-1-0.5-2.1-0.5-3.2-0.5c-2.4,0-4.8-0.2-7.1-0.5c-2.2-0.3-4.5-0.5-6.7-0.9c-1.8-0.3-3.5-0.1-5.2-0.5
			c-4.7-1.1-9.5-1-14.3-1.2c-2.7-0.1-5.4,0.2-8,0.1c-0.9,0-1.8,0-2.6,0c-1.8-0.1-3.6,0.4-5.4,0.4c-2.2,0-4.3,0.1-6.5-0.2
			c-2.5-0.3-4.9,0.2-7.4,0.1c0,0.2,0,0.5,0,0.7c-0.1,1.4-0.3,1.5-1.2,1c-0.5-0.3-1-0.7-1.3-1.3c-1.5-0.6-2.9,0.5-4.4,0.5
			c-0.4,0.3-0.7,0-1-0.4c-1.5-0.6-3,0.1-4.5,0.1c-4.1,0-8.3,0.3-12.4,0.7c-3.5,0.3-7,0.5-10.5,0.7c-6.4,0.3-12.8-0.3-19.2,0.5
			c-1.4,0.2-2.8-0.6-4.1-0.3c-1.8,0.4-3.8-0.3-5.6,0.8c-0.2,0.1-0.4,0.1-0.6,0c-1.3-1-2.6-0.4-3.9-0.4c-4.3-0.1-8.5-0.1-12.8,0.1
			c-5,0.2-9.9,0.2-14.9,0.3c-3.1,0.1-6.3,0.3-9.4,0.3c-4.3-0.1-8.5-0.5-12.8-0.4c-2.4,0-4.7-0.7-7.1-0.3c-0.3,0-0.6-0.1-0.9-0.2
			c-1.6-0.6-3.1,0.2-4.6,0.9c-0.3,0.1-0.7,0.5-0.7,1C35.1,48.4,35.4,48.5,35.7,48.7z"/>
		<path class="st0" d="M39.8,37.9c2.1,1.1,4,2.7,6.5,2.2c0.4-0.1,0.9-0.1,1.3,0c3.6,0.1,7.3,0.9,10.9-0.5c0.4-0.2,0.9-0.1,1.3-0.1
			c2.1,0.1,4.1,0,6.2,0.1c5.8,0.3,11.7-0.7,17.5-0.6c3.2,0.1,6.2-1.3,9.4-0.7c1,0.2,2,0.1,3,0c5.3-0.2,10.6-0.9,16-0.4
			c0.6,0.1,0.9-0.4,1.4-0.6c1.4-1.1,2.8-1.8,4.7-1.1c0.9,0.4,2.1,0.5,3.2,0.2c0.4-0.1,0.7,0.2,0.9,0.7c0.4,0.2,0.9,0.2,1.3,0.2
			c3.2,0,6.4-0.1,9.6,0.2c2.7,0.2,5.5,0.3,8.2,0.3c5,0,10,0.2,15,0.1c0.4,0,0.8,0.1,1.1,0.2c1,0.3,2,0.3,2.8-0.8
			c0.2-0.3,0.5-0.6,0.8-0.2c1.1,1.5,2.4,1.7,3.9,0.8c0.3-0.2,0.6-0.1,0.9,0.1c1.4,1.1,2.9,0.8,4.4,1c2.1,0.3,4.3-0.6,6.4,0.2
			c0-0.7,0.2-1.3,0.8-1.2c0.8,0.2,1.8-0.7,2.2,0.9c0.2,0,0.5,0,0.7,0c0.1-0.1,0.3-0.1,0.4-0.2c0.7,0.1,1.5,0.1,2.2,0.2
			c0.4-0.4,0.8-0.4,1.2-0.2c1,0.5,2.1,0.7,3.1,0.5c0.8-0.1,1.4,0,2.2,0c1.7,0,3.5,0.5,5.2,0.1c0.2-0.3,0.5-0.4,0.8-0.1
			c0.6,0.1,1.3,0.1,1.9,0.2c1.3-1.4,2.8-0.6,4.3-0.4c0.4,0.1,0.6,0.6,0.6,1.1c0.5,0.3,1.1,0.2,1.6,0c1.3-1.4,2.8-1.4,4.1,0.1
			c1,0.1,1.9,0.1,2.9,0.2c2.2-0.2,4.3-0.7,6.5,0c0.9,0.3,1.9,0.3,2.8-0.3c0.3,0,0.5,0,0.8,0c2.5-0.4,5.1,0.8,7.6-0.1
			c0.4-0.1,0.7,0,1.1,0.2c1.2,0.6,2.3,0.5,3.5,0.2c0.2,0,0.5,0,0.7,0c0.4,0,0.8,0.1,1.1,0.1c0.4-0.1,0.7-0.1,1.1-0.2
			c0.9,0.2,1.9,1,2.8,0c0.2,0,0.3,0,0.5,0c0.2,0.3,0.5,0.5,0.8,0.5c1.6,0.1,3.1,0.6,4.7,0.4c1.4-0.2,2.8,0,4.1,0.6
			c0.6,0.3,1.2,0.6,1.8,0.2c0.8-0.4,1.6-0.4,2.4-0.4c2.3,0,4.6-0.5,7-0.3c0.5,0.1,1,0,1.4-0.4c0.7-0.6,1.4-0.6,2.2-0.4
			c0.9,0.2,1.9,0.2,2.8,0c0.4-0.1,0.9-0.5,0.6-0.9c-0.6-0.9-1.2-2.2-2.2-2.5c-1.5-0.5-3.1-0.8-4.7-0.8c-3.8-0.1-7.6,0.1-11.5,0
			c-2.7-0.1-5.4-0.1-8.1-0.4c-0.4,0-0.9-0.1-1.3,0.2c-0.9,0.6-1.9-0.2-2.8-0.1c-1-0.6-2-0.4-3.1-0.3c-0.4,0-0.7,0-1.1,0
			c-1.3-0.8-2.6-0.5-3.9-0.3c-0.5-0.1-0.9-0.1-1.4-0.2c-0.2-0.1-0.3-0.1-0.4,0.1c-0.6,0-1.2,0-1.9,0.1c-0.8-0.5-1.6-0.4-2.4-0.2
			c-0.5,0-1,0-1.4,0c-0.1,0-0.3,0-0.4,0c-0.2,0-0.5-0.1-0.7-0.1c-0.9-0.4-3.4,0-3.8,0c-0.3,0.2-0.7,0.4-1,0.5c0.3-0.1,0.7-0.3,1-0.5
			c-0.9-0.3-1.8,0-2.7,0c-1.6,0-3.2-0.2-4.7,0.1c-2.6,0.5-5.3,0.2-7.9,0c-3.1-0.2-6.3-0.4-9.4-0.3c-3.5,0.1-6.9,0.1-10.4,0.1
			c-3-0.1-5.9-0.8-8.9-0.4c-1.1,0.1-2.3,0-3.4,0c-3.7,0-7.4-0.9-11.1-0.2c-1.8,0.3-3.5-0.3-5.3-0.4c-2.7-0.1-5.4,0-8.1,0.2
			c-3.4,0.2-6.9-0.2-10.4-0.1c-2.4,0.1-4.9,0.1-7.3,0.2c-3.4,0.1-6.8-0.5-10.2,0.2c-0.2,0-0.3-0.1-0.5-0.1c-0.7,0.2-1.3,0.5-2,0.6
			c-1.3,0.3-2.5,0-3.7,0.1c-2.2,0.2-4.4,0.1-6.6-0.2c-0.8-0.1-1.7-0.3-2.4,0.1c-0.9,0.5-1.8,0.4-2.8,0.3c-1-0.2-2-0.2-3,0
			c-0.9,0.2-1.8,0.2-2.6,0.2c-1.6-0.1-3.3-0.2-4.9-0.1c-3.7,0.1-7.4,1.1-11.1,0.9c-0.8,0-1.7-0.1-2.4,0.1c-2.2,0.6-4.5,0.6-6.7,0.5
			c-2.1-0.1-4.1,0.2-6.2-0.2c-1.3-0.3-2.7-0.2-4,0c-3.1,0.4-6.3,0.3-9.4,0.2c-1.2,0-2.3-0.3-3.3-0.9c-0.8-0.5-1.7-0.7-2.6-0.4
			c-0.7,0.3-1.3,0.6-2.2,0.4c-0.6-0.2-0.9,0.5-0.7,1.3C39.2,37.3,39.4,37.7,39.8,37.9z"/>
	</g>
	<g>
		<path class="st2" d="M150.5,75.5c-0.3-0.4-0.5-0.8-0.8-1.1c-0.9-1-1-2.1-0.4-3.1c1.2-2.1,2.5-4,4.7-5.2c1.2-0.6,2.2-1.7,3-2.9
			c0.2-0.3,0.3-0.7,0.6-0.8c1.5-0.9,2.6-2.1,3.8-3.3c0.3-0.3,0.7-0.7,1.1-0.8c0.9-0.2,1.3-0.7,1.5-1.5c0.2-0.8,0.7-1.2,1.5-1.5
			c0.9-0.3,1.4-1.1,2.1-1.6c1.7-1.2,3.1-2.7,5-3.6c1.6-0.7,1.9-0.9,2.9-2.6c-1.6,0.9-3.1,1.7-4.5,2.6c-1.2,0.7-2.2,1.6-3.6,2
			c-0.1,0-0.2,0.1-0.3,0.2c-1.6,1.8-4,2.3-5.9,3.6c-1.9,1.3-3.9,2.5-5.9,3.7c-1.7,1-3.5,1.8-5.3,2.6c-1.1,0.5-2.2,0.8-3.1,1.7
			c-0.2,0.2-0.6,0.4-0.9,0.4c-1.6-0.1-3.2,0.3-4.9,0.3c-1.3,0-1.8-0.8-2.3-1.7c-0.4-0.8-0.3-1.6,0.4-2.3c0.6-0.5,1.1-1.1,1.8-1.5
			c1.2-0.8,2.2-1.9,3.4-2.7c2.7-1.8,5.3-3.8,8.2-5.3c1.1-0.6,1.9-1.4,2.6-2.4c0.4-0.5,0.8-0.8,1.4-1.1c1.6-0.6,3-1.7,4.4-2.7
			c2.2-1.6,4.3-3.3,6.4-4.9c0.4-0.3,1-0.6,1-1.3c-0.7-0.2-1.2,0-1.8,0.2c-4.5,2.1-8.9,4.3-13.4,6.4c-3.4,1.6-6.7,3.2-10.5,3.8
			c-0.3,0.1-0.7,0.1-1,0.3c-2,1.1-4.1,0.6-6.2,0.3c-1.2-0.2-1.6-1.6-1-2.7c1.3-2,3.2-3.3,5.1-4.6c0.4-0.3,0.7-0.4,0.9-0.9
			c0.3-0.5,0.7-1,1.2-1.2c1.5-0.7,2.6-2,4-2.8c0.6-0.4,1.2-0.9,1.9-1c0.2,0,0.5-0.1,0.6-0.3c1.2-1.4,2.9-1.9,4.4-2.8
			c1.4-0.8,2.9-1.5,4.2-2.5c1.9-1.3,4-2.6,6.1-3.6c1.2-0.5,2.3-1.3,3.2-2.5c-1.4,0.2-2.6,0.5-3.8,1.1c-1.8,0.9-3.7,1.2-5.6,1.9
			c-2.1,0.8-4.1,1.9-6.2,2.8c-0.8,0.4-3.1,1.3-3.9,1.7c-0.9,0.4-1.9,0-2.8,0.4c-0.3,0.1-0.6-0.1-0.8-0.3c-0.7-0.6-1.6-1.1-1.9-1.9
			c-0.3-0.8,0-1.8,0.3-2.6c0.4-1.1,1.1-2.1,1.7-3.1c0.2-0.4,0.5-0.6,0.9-0.7c0.4-0.1,0.9-0.3,1.2-0.6c1.7-1.6,3.5-2.9,5.5-4.2
			c0.2-0.1,0.3-0.4,0.5-0.4c1.5-0.3,2.6-1.2,3.9-1.8c2.5-1.3,5.2-2.2,7.8-3.3c2.6-1.1,5.2-2.4,7.9-3.5c2.7-1.1,5.2-2.5,7.9-3.4
			c3.7-1.2,7.2-3.1,10.9-4c3.1-0.8,6.1-2.1,9.3-2.5c2-0.2,3.9-0.4,5.9-0.3c0.5,0,0.9,0.1,1.3,0.3c2.2,1.5,4.8,2,7.3,2.6
			c0.8,0.2,1.5,0.6,2.1,1c2.1,1.3,4.4,2.4,6.4,3.8c0.8,0.6,1.3,1.2,1.7,2.1c0.4,0.9,1,1.8,1.7,2.5c3.2,3.3,3.5,7.3,2.7,11.5
			c-0.4,2.5-1.5,4.9-2.5,7.2c-0.3,0.7-5.4,9.2-6.2,10.3c-1.1,1.6-2.3,2.9-3.8,4c-1.3,0.9-2,2.3-3,3.4c-1.5,1.9-2.9,3.9-4.2,5.9
			c-0.9,1.5-2.3,2.7-3.3,4.2c-1.8,2.5-4.1,4.5-6.1,6.6c-1.5,1.5-3.2,2.9-4.9,4.1c-2,1.4-4.1,2.6-6.2,3.8c-0.3,0.2-0.7,0.3-1.1,0.5
			c-2.8,1-3.5,0.7-4.9-1.8c-0.1-0.1-0.2-0.3-0.3-0.4c0,0,0,0,0,0c0.6-2.3,1.4-4.5,3-6.4c0.4-0.4,0.4-1.2,0.9-1.6
			c1.1-0.7,2-1.6,2.8-2.6c1-1.3,2.1-2.5,2.1-4.2c0-0.9,0.4-1.5,1.1-2.2c1.5-1.5,2.6-3.3,3.5-5.3c-0.9-0.1-1.6,0-2.1,0.5
			c-1.4,1.5-3.4,2.1-4.9,3.6c-1.5,1.5-3.3,2.8-4.8,4.4c-0.6,0.6-1.2,1-1.9,1.4c-1.3,0.8-2.5,1.7-3.7,2.6c-1.3,1-2.3,2.3-3.6,3.3
			c-1.2,1-2.4,2.1-3.8,2.8c-1.4,0.8-2.6,1.9-4,2.8c-0.2,0.1-0.4,0.2-0.5,0.3c-1.7,0.8-3.5,1.7-5.2,2.5c-0.2,0.1-0.4,0.4-0.6,0.6
			c-0.5,0.2-1.1,0.4-1.6,0.7c-0.4-0.1-0.5,0-0.6,0.4c-1.4,0.5-2.8,0.4-4.2,1c-0.7,0.3-1.4-0.1-2.1-0.3
			C151.5,75.3,151.1,75.1,150.5,75.5L150.5,75.5z M224,18.6L224,18.6L224,18.6c-0.9,1-1,2.4-1.8,3.4c-0.6,0.7-0.5,1.5-0.4,2.2
			c0,0.2,0.1,0.5,0.4,0.5c0.3,0.1,0.5-0.1,0.7-0.4C224,22.6,224.3,20.7,224,18.6z M166.2,59.7c-1.2,0-1.8,0.5-2.3,1
			c-2.9,2.5-5.6,5.2-8.4,7.9c-0.8,0.8-1.5,1.7-2.2,2.5c-0.3,0.3-0.5,0.8-0.1,1.2c0.3,0.3,0.7,0.3,1.1,0.2c0.7-0.2,1.4-0.4,2.1-0.6
			c1.4-0.5,1.6-0.7,1.3-2.2c-0.1-0.6-0.3-1.1,0.3-1.5c2.4-2,4.5-4.5,6.8-6.6C165.1,61.2,165.5,60.6,166.2,59.7z M172.7,33.3
			c1-0.2,1.8,0.9,2.9,0.7C174.1,32.2,173.9,32.1,172.7,33.3z M222.1,14.2c-0.1,1,0,1.6,0.6,2.2c0.2,0.2,0.4,0.3,0.6,0.2
			c0.2-0.1,0.2-0.4,0.2-0.6C223.2,15.3,222.8,14.7,222.1,14.2z"/>
		<path class="st2" d="M129,40.7c-0.5,1.3-1.1,2.7-1.3,4.1c0,0.3,0,0.6-0.2,0.8c-0.9,1.4-1.1,3-1.5,4.5c-0.4,1.3-0.7,2.6-1.2,3.9
			c-0.2,0.6-0.5,1.1-0.7,1.7c-0.3,0.8-0.7,1.7-0.7,2.6c0,0.5-0.1,1.1-0.4,1.5c-1.3,1.5-3.6,8.6-4.4,10.3c-0.1,0.2-0.1,0.4-0.1,0.7
			c0,0.2,0,0.5,0.3,0.5c0.2,0,0.4,0,0.5-0.1c0.6-0.5,7.7-11.8,8.4-12.9c1-1.4,2.5-2.3,3.9-3.1c0.3-0.2,0.6-0.2,1-0.3
			c0.5-0.1,2.5-0.7,3.4,1.5c0.9,2.2-6.5,13-7.4,15.3c-0.1,0.2-2.5,6.1-2.5,6.2c-0.7,2.6-1.4,5-2.4,7.5c-0.8,1.9-6.7,16.3-7.1,17.4
			c-0.5,1.2-1.7,1.9-2.4,3c-0.1,0.1-0.3,0.3-0.4,0.3c-1.1-0.6-1.5,0.8-2.4,0.9c-0.2,0-0.3,0.2-0.3,0.3c-0.1,0.9-0.6,1.4-1.4,1.7
			c-0.3,0.1-0.5,0.3-0.6,0.6c-0.3,1-1.1,1.4-2.1,1.5c-0.5,0-0.9,0.2-0.9,0.8c0,0.4-0.2,0.7-0.6,0.8c-1.7,0.4-3.2,1.7-5,1.8
			c-0.9,0-1.8,0.2-2.6,0.6c-1.3,0.6-2.9,0.4-4.1,1.4c-2.9,0.2-5.9,0.2-8.2-2c-0.5-0.5-1-0.8-1.8-0.7c-0.8,0.1-1-0.2-0.8-1
			c0.2-0.6,0-1-0.8-0.6c-0.3,0.2-0.5-0.1-0.7-0.3c-0.5-0.4-0.9-1-1.2-1.6c-1-2.1-2.8-3.9-2.6-6.4c0-0.2,0-0.5-0.1-0.7
			c-1-1.5-0.9-3.3-1.1-5c-0.1-1.2-0.8-2.3-0.9-3.6c-0.1-1.9-0.7-3.6-1.4-5.4c-0.6-1.4-1-3-1-4.6c0-1.1-0.1-2.1-0.3-3.2
			c-0.7-3.4-1.1-6.8-1.2-10.2c0-2.9-0.6-5.7-0.4-8.6c0.1-0.9,0.1-1.8-0.3-2.7c-0.2-0.6-0.1-1.2,0.1-1.8c0.3-1,0.3-2.1,0.1-3.2
			c-0.6-3.2,0.5-5.9,2.4-8.3c1-1.3,5.1,3.1,6.3,4.6c0.9,1.1,3.8,12.2,3.8,13c0,1.6,0,1.7,0.7,2.8c0.8-0.9,1.8-3.7,2.1-4.6
			c0.8-2.5,0.9-5.1,1.6-7.5c0.6-1.8,1.3-3.5,1-5.4c-0.1-0.3,0.1-0.7,0.3-1c0.2-0.3,0.4-0.6,0.2-0.9c-0.5-0.7-0.2-1.4-0.1-2.1
			c0.4-3.3,0.7-6.6,1.5-9.9c0.5-2,1.1-4.1,0.6-6.3c0.4-0.7,0.2-1.4,0.3-2.2c0.4-2.3,2.2-3.8,3.4-5.7c0.7-1.1,2.3-1,3.3,0
			c0.9,0.8,1.4,1.8,1.9,2.8c0.3,0.6,0.7,1.1,1.1,1.7c0.1,1.3,0.6,2.5,0.5,3.7c0,0.1,0.2,0.3,0.2,0.4c0,0.2-0.1,0.4-0.1,0.7
			c-0.5,0.4-0.5,0.9-0.1,1.4c0,0.2,0,0.4,0,0.6c-0.1,0.1-0.1,0.3-0.2,0.4c0,0.2,0,0.4-0.1,0.6c-0.2,0.2-0.5,0.3-0.2,0.7
			c0,1.1,0.2,2.2,0,3.3c-0.1,0.1-0.4,0.2-0.4,0.3c0,1.3-0.3,2.7,0,4c0.2,1.1,0.6,2.1,0.2,3.3c-0.2,0.5,0.3,0.9,0.6,1
			c0.5,0.3,0.6-0.3,0.8-0.6c0.2-0.4,0.5-0.9,0.3-1.3c-0.6-1.2,0.2-2.3,0.4-3.4c0.1-0.7,0.6-1.3,0.4-2.1c0-0.2,0-0.4,0-0.6
			c1-0.8,0.7-2,0.9-3c0-0.2,0-0.4,0.1-0.7c0.2-0.1,0.2-0.2,0.2-0.4c0.6-1.3,0.9-2.7,1.1-4.1c0.4-2.4,1.5-4.6,2.5-6.8
			c0.5-1,7.7-5.7,6.5,7.3c-0.4,0.2-0.7,3.9-0.8,4.3c-0.3,2.9-0.6,5.8-0.9,8.7c-0.2,2.6-0.4,5.2-1,7.7c-0.1,0.5-2.5,9.3-2.5,9.8
			c0,0.2,0,0.5,0.3,0.6c0.3,0.1,0.5-0.1,0.7-0.3c0.4-0.6,2.7-9.6,3-10.2c0.9-1.8,2.2-3.4,2.5-5.6c0.1-0.7,0.7-1.4,0.7-2.2
			c0-1.6,0.8-2.9,1.3-4.3c0.1-0.2,0.2-0.5,0.3-0.5c1.2-0.1,1.3-1.1,1.6-1.9c0.2-0.5,0.6-0.9,1.1-1.2c1-0.7,2.3-1,3-2
			c0.5-0.4,1.1-0.3,1.7-0.4c0.6,0.4,1.1,0.8,1.7,1.2c0.8,1.4,1,2.8,0.8,4.4C128.8,39.4,129,40.1,129,40.7z M101.6,52.2
			c0.7-1.3,0.7-2.7,1.1-3.9c0-0.1,0-0.2,0-0.3c-0.2-0.4-0.5-0.6-0.9-0.5c-0.4,0.1-0.6,0.5-0.3,0.8c0.6,0.9,0.2,1.7,0,2.6
			C101.3,51.2,101,51.6,101.6,52.2z"/>
	</g>
	<path class="st1" d="M235.8,49.3c-0.5,0-0.9,0-1.2,0.3c-1.6,1.6-3.6,3-3.7,5.3c0,0.4-0.2,0.8-0.3,1.2c-1,3.3-2.8,6.4-2.4,10.1
		c0,0.4-0.1,0.8-0.3,1.2c-0.6,1.9-1.1,3.8-1.8,5.6c-0.2,0.5-0.4,1.1-0.5,1.6c-0.3-0.3-0.6-0.5-1.1-0.7c-0.9-0.3-1.8-0.6-2.6-1.2
		c-1.1-0.8-2-1.4-3.2-0.4c-0.1,0.1-0.3,0.1-0.5,0.1c-1.9,0.2-3.3,1.4-4.3,2.9c-1,1.5-1.7,2.3-2.4,4c-0.1,0.3,0.1,0.7,0.1,1.1
		c0.3,1.5,2.3,2.5,3.7,3.1c5.9,2.6,9.2,0.3,10.7-0.4c0-0.1,0-0.1,0-0.2c0.1,0.1,0.3,0.1,0.4,0.1c2-0.6,1.5-6.1,2.1-8
		c0.7-1.8,0.9-3.8,1.8-5.6c0.6-1.1,0.9-2.4,1.1-3.6c0.5-3,1.4-5.8,2.3-8.6c0.3-1,0.8-2,1.7-2.8c0.7-0.6,1.1-1.4,1-2.3
		c-0.1-0.7-0.2-1.4,0.2-2.1C237,49.7,236.5,49.3,235.8,49.3z"/>
	<path class="st1" d="M71.9,24.5c0.3-0.6,0.5-1.3,0.5-2c0-0.3-0.2-0.7-0.5-0.6c-0.8,0.3-1.7,0.5-2.1,1.1c-0.6,1-1.1,2-1.4,3.1
		c-0.7,2.7-1.2,5.4-2,8c-0.5,1.9-1,3.8-1.7,5.6c-0.1,0.3-0.2,0.6-0.1,0.9c0.2,0.8-0.5,1.3-0.6,2c-0.6,0.6-0.7,1.4-0.8,2.1
		c-0.1,0.3-0.1,0.5-0.2,0.8c-0.6,0.6-0.8,1.4-0.8,2.1c-0.1,0-0.1-0.1-0.2-0.1c-0.9-0.3-1.9-0.7-2.7-1.3c-1.1-0.8-2.1-1.5-3.4-0.4
		c-0.1,0.1-0.3,0.1-0.5,0.1c-2,0.2-3.5,1.5-4.5,3c-1.1,1.6-1.7,2.4-2.5,4.2c-0.1,0.3,0.1,0.8,0.1,1.2c0.3,1.6,2.4,2.7,3.9,3.3
		c6.2,2.8,9.6,0.4,11.3-0.4c0.1-0.6,0.1-1.2,0.2-1.7c0.1-0.1,0.1-0.2,0.1-0.4c0-0.1,0.1-0.2,0.1-0.3c0.4-0.7,0.4-1.4,0.4-2.1
		c0.4-1.2,1-2.4,0.9-3.7c0-0.3,0.1-0.5,0.3-0.7c0.6-0.7,0.7-1.5,0.7-2.4c0-0.2,0.1-0.3,0.1-0.5c0.1-0.3,0.2-0.5,0.3-0.8
		c0-0.3,0-0.5,0-0.8c0.3-0.6,1-1.2,0.5-2c0-0.1,0.1-0.2,0.1-0.4c0.3-0.1,0.5-0.3,0.5-0.5c0.3-1.1,0.9-2.1,1.1-3.2
		c0.1-1,0.5-1.9,1.2-2.8c0.3-0.4,0.6-0.8,0.5-1.2c-0.1-0.6,0-1.2,0.2-1.8c0.4-1.6,0.4-3.3,1-4.9c0.1-0.3,0.2-0.7,0-1.1
		C71.5,25.5,71.7,25,71.9,24.5z"/>
</g>
</svg>
