<svg width="20" height="20" viewBox="0 0 20 20" fill="none" xmlns="http://www.w3.org/2000/svg">
<path
  d="M13.6457 1.66699H6.354C5.49137 1.66699 4.7915 2.36686 4.7915 3.22949V16.7712C4.7915 17.6338 5.49137 18.3337 6.354 18.3337H13.6457C14.5083 18.3337 15.2082 17.6338 15.2082 16.7712V3.22949C15.2082 2.36686 14.5083 1.66699 13.6457 1.66699ZM9.99984 17.292C9.42367 17.292 8.95817 16.8265 8.95817 16.2503C8.95817 15.6742 9.42367 15.2087 9.99984 15.2087C10.576 15.2087 11.0415 15.6742 11.0415 16.2503C11.0415 16.8265 10.576 17.292 9.99984 17.292ZM13.6457 13.7764C13.6457 13.9912 13.4699 14.167 13.255 14.167H6.74463C6.52979 14.167 6.354 13.9912 6.354 13.7764V3.62012C6.354 3.40527 6.52979 3.22949 6.74463 3.22949H13.255C13.4699 3.22949 13.6457 3.40527 13.6457 3.62012V13.7764Z" fill="currentColor"/>
</svg>
