<svg width="20" height="20" viewBox="0 0 20 20" fill="none" xmlns="http://www.w3.org/2000/svg">
<path
  d="M17.7277 2.46811L14.3424 1.68688C13.9745 1.60224 13.5969 1.79429 13.4472 2.13934L11.8847 5.7851C11.748 6.1041 11.8392 6.47844 12.1093 6.69654L14.0819 8.31109C12.9101 10.8078 10.8626 12.8846 8.31384 14.0792L6.69929 12.1066C6.47794 11.8364 6.10685 11.7453 5.78785 11.882L2.14209 13.4444C1.79379 13.5974 1.60174 13.975 1.68637 14.3429L2.46761 17.7282C2.54899 18.0798 2.86148 18.3337 3.22931 18.3337C11.5657 18.3337 18.3332 11.5792 18.3332 3.22981C18.3332 2.86524 18.0825 2.54949 17.7277 2.46811Z" fill="currentColor"/>
</svg>
